<mxfile host="Electron" modified="2023-06-03T18:38:32.169Z" agent="Mozilla/5.0 (X11; Linux x86_64) AppleWebKit/537.36 (KHTML, like Gecko) draw.io/21.2.8 Chrome/112.0.5615.165 Electron/24.2.0 Safari/537.36" etag="go7TtdqYd4X9nkq4MEOR" version="21.2.8" type="device">
  <diagram name="Page-1" id="k5_LY00Du3hpLG0r_a1F">
    <mxGraphModel dx="989" dy="579" grid="1" gridSize="10" guides="1" tooltips="1" connect="1" arrows="1" fold="1" page="1" pageScale="1" pageWidth="1169" pageHeight="1654" math="0" shadow="0">
      <root>
        <mxCell id="0" />
        <mxCell id="1" parent="0" />
        <mxCell id="QWC1i_fPBQ1l9xFb2VbQ-1" value="im Regal" style="rounded=1;whiteSpace=wrap;html=1;" vertex="1" parent="1">
          <mxGeometry x="260" y="120" width="120" height="60" as="geometry" />
        </mxCell>
        <mxCell id="QWC1i_fPBQ1l9xFb2VbQ-2" value="in der&lt;br&gt;Reparatur" style="rounded=1;whiteSpace=wrap;html=1;" vertex="1" parent="1">
          <mxGeometry x="690" y="30" width="120" height="60" as="geometry" />
        </mxCell>
        <mxCell id="QWC1i_fPBQ1l9xFb2VbQ-3" value="im Müll" style="rounded=1;whiteSpace=wrap;html=1;" vertex="1" parent="1">
          <mxGeometry x="700" y="180" width="120" height="60" as="geometry" />
        </mxCell>
        <mxCell id="QWC1i_fPBQ1l9xFb2VbQ-4" value="beim Kunden" style="rounded=1;whiteSpace=wrap;html=1;" vertex="1" parent="1">
          <mxGeometry x="260" y="270" width="120" height="60" as="geometry" />
        </mxCell>
        <mxCell id="QWC1i_fPBQ1l9xFb2VbQ-7" value="" style="endArrow=classic;html=1;curved=1;exitX=0.25;exitY=0;exitDx=0;exitDy=0;entryX=0.301;entryY=1.002;entryDx=0;entryDy=0;entryPerimeter=0;" edge="1" parent="1" source="QWC1i_fPBQ1l9xFb2VbQ-4" target="QWC1i_fPBQ1l9xFb2VbQ-1">
          <mxGeometry width="50" height="50" relative="1" as="geometry">
            <mxPoint x="290" y="230" as="sourcePoint" />
            <mxPoint x="290" y="180" as="targetPoint" />
            <Array as="points">
              <mxPoint x="270" y="220" />
            </Array>
          </mxGeometry>
        </mxCell>
        <mxCell id="QWC1i_fPBQ1l9xFb2VbQ-8" value="" style="endArrow=classic;html=1;curved=1;exitX=0.25;exitY=0;exitDx=0;exitDy=0;entryX=0.301;entryY=1.002;entryDx=0;entryDy=0;entryPerimeter=0;" edge="1" parent="1">
          <mxGeometry width="50" height="50" relative="1" as="geometry">
            <mxPoint x="346" y="180" as="sourcePoint" />
            <mxPoint x="340" y="270" as="targetPoint" />
            <Array as="points">
              <mxPoint x="366" y="230" />
            </Array>
          </mxGeometry>
        </mxCell>
        <mxCell id="QWC1i_fPBQ1l9xFb2VbQ-12" value="" style="ellipse;html=1;shape=startState;fillColor=#000000;strokeColor=#ff0000;" vertex="1" parent="1">
          <mxGeometry x="130" y="130" width="30" height="30" as="geometry" />
        </mxCell>
        <mxCell id="QWC1i_fPBQ1l9xFb2VbQ-13" value="" style="edgeStyle=orthogonalEdgeStyle;html=1;verticalAlign=bottom;endArrow=open;endSize=8;strokeColor=#ff0000;rounded=0;" edge="1" source="QWC1i_fPBQ1l9xFb2VbQ-12" parent="1">
          <mxGeometry relative="1" as="geometry">
            <mxPoint x="250" y="145" as="targetPoint" />
          </mxGeometry>
        </mxCell>
        <mxCell id="QWC1i_fPBQ1l9xFb2VbQ-14" value="" style="ellipse;html=1;shape=endState;fillColor=#000000;strokeColor=#ff0000;" vertex="1" parent="1">
          <mxGeometry x="745" y="310" width="30" height="30" as="geometry" />
        </mxCell>
        <mxCell id="QWC1i_fPBQ1l9xFb2VbQ-15" value="" style="endArrow=classic;html=1;rounded=0;" edge="1" parent="1">
          <mxGeometry width="50" height="50" relative="1" as="geometry">
            <mxPoint x="390" y="150" as="sourcePoint" />
            <mxPoint x="500" y="150" as="targetPoint" />
          </mxGeometry>
        </mxCell>
        <mxCell id="QWC1i_fPBQ1l9xFb2VbQ-16" value="" style="endArrow=classic;html=1;rounded=0;entryX=0.5;entryY=0;entryDx=0;entryDy=0;" edge="1" parent="1" target="QWC1i_fPBQ1l9xFb2VbQ-14">
          <mxGeometry width="50" height="50" relative="1" as="geometry">
            <mxPoint x="760" y="250" as="sourcePoint" />
            <mxPoint x="550" y="250" as="targetPoint" />
          </mxGeometry>
        </mxCell>
        <mxCell id="QWC1i_fPBQ1l9xFb2VbQ-17" value="reparier-&lt;br&gt;bar?" style="rhombus;whiteSpace=wrap;html=1;" vertex="1" parent="1">
          <mxGeometry x="505" y="110" width="80" height="80" as="geometry" />
        </mxCell>
        <mxCell id="QWC1i_fPBQ1l9xFb2VbQ-19" value="" style="endArrow=classic;html=1;rounded=0;exitX=1;exitY=0;exitDx=0;exitDy=0;" edge="1" parent="1" source="QWC1i_fPBQ1l9xFb2VbQ-17">
          <mxGeometry width="50" height="50" relative="1" as="geometry">
            <mxPoint x="480" y="330" as="sourcePoint" />
            <mxPoint x="680" y="60" as="targetPoint" />
          </mxGeometry>
        </mxCell>
        <mxCell id="QWC1i_fPBQ1l9xFb2VbQ-20" value="" style="endArrow=classic;html=1;rounded=0;exitX=1;exitY=1;exitDx=0;exitDy=0;" edge="1" parent="1" source="QWC1i_fPBQ1l9xFb2VbQ-17">
          <mxGeometry width="50" height="50" relative="1" as="geometry">
            <mxPoint x="480" y="330" as="sourcePoint" />
            <mxPoint x="690" y="210" as="targetPoint" />
          </mxGeometry>
        </mxCell>
        <mxCell id="QWC1i_fPBQ1l9xFb2VbQ-21" value="" style="curved=1;endArrow=classic;html=1;rounded=0;" edge="1" parent="1">
          <mxGeometry width="50" height="50" relative="1" as="geometry">
            <mxPoint x="680" y="50" as="sourcePoint" />
            <mxPoint x="390" y="130" as="targetPoint" />
            <Array as="points">
              <mxPoint x="520" y="40" />
            </Array>
          </mxGeometry>
        </mxCell>
        <mxCell id="QWC1i_fPBQ1l9xFb2VbQ-22" value="ja" style="text;html=1;strokeColor=none;fillColor=none;align=center;verticalAlign=middle;whiteSpace=wrap;rounded=0;" vertex="1" parent="1">
          <mxGeometry x="560" y="80" width="60" height="30" as="geometry" />
        </mxCell>
        <mxCell id="QWC1i_fPBQ1l9xFb2VbQ-23" value="nein" style="text;html=1;strokeColor=none;fillColor=none;align=center;verticalAlign=middle;whiteSpace=wrap;rounded=0;" vertex="1" parent="1">
          <mxGeometry x="580" y="160" width="60" height="20" as="geometry" />
        </mxCell>
        <mxCell id="QWC1i_fPBQ1l9xFb2VbQ-24" value="sortiert" style="text;html=1;strokeColor=none;fillColor=none;align=center;verticalAlign=middle;whiteSpace=wrap;rounded=0;" vertex="1" parent="1">
          <mxGeometry x="170" y="120" width="60" height="30" as="geometry" />
        </mxCell>
        <mxCell id="QWC1i_fPBQ1l9xFb2VbQ-25" value="beschädigt" style="text;html=1;strokeColor=none;fillColor=none;align=center;verticalAlign=middle;whiteSpace=wrap;rounded=0;" vertex="1" parent="1">
          <mxGeometry x="420" y="120" width="60" height="30" as="geometry" />
        </mxCell>
        <mxCell id="QWC1i_fPBQ1l9xFb2VbQ-26" value="repariert" style="text;html=1;strokeColor=none;fillColor=none;align=center;verticalAlign=middle;whiteSpace=wrap;rounded=0;" vertex="1" parent="1">
          <mxGeometry x="530" y="20" width="60" height="30" as="geometry" />
        </mxCell>
        <mxCell id="QWC1i_fPBQ1l9xFb2VbQ-28" value="ausgeliehen" style="text;html=1;strokeColor=none;fillColor=none;align=center;verticalAlign=middle;whiteSpace=wrap;rounded=0;" vertex="1" parent="1">
          <mxGeometry x="360" y="210" width="60" height="30" as="geometry" />
        </mxCell>
        <mxCell id="QWC1i_fPBQ1l9xFb2VbQ-29" value="retourniert" style="text;html=1;strokeColor=none;fillColor=none;align=center;verticalAlign=middle;whiteSpace=wrap;rounded=0;" vertex="1" parent="1">
          <mxGeometry x="220" y="210" width="60" height="30" as="geometry" />
        </mxCell>
        <mxCell id="QWC1i_fPBQ1l9xFb2VbQ-30" value="&lt;b&gt;stm&lt;/b&gt; Exemplar" style="shape=umlFrame;whiteSpace=wrap;html=1;pointerEvents=0;width=90;height=30;" vertex="1" parent="1">
          <mxGeometry x="110" y="10" width="750" height="350" as="geometry" />
        </mxCell>
      </root>
    </mxGraphModel>
  </diagram>
</mxfile>
